<svg id="Logo_Art" data-name="Logo Art" xmlns="http://www.w3.org/2000/svg" viewBox="0 0 333.86 83.43"><defs><style>.cls-1{fill:#72cdf4;}.cls-2{fill:#007fb2;}.cls-3{fill:#abdef8;}.cls-4{fill:#8ed8f8;}</style></defs><path class="cls-1" d="M114.34,71.65a11.76,11.76,0,1,1-23.51,0V51.5a1.68,1.68,0,1,1,3.35,0V63.43a11.76,11.76,0,0,1,20.16,8.22Zm-3.35,0a8.47,8.47,0,1,0-2.48,5.95A8.1,8.1,0,0,0,111,71.65Z"/><path class="cls-1" d="M127.45,81.74a1.5,1.5,0,0,1-1.69,1.69,6.74,6.74,0,0,1-6.7-6.73V51.5a1.68,1.68,0,1,1,3.35,0V76.7a3.4,3.4,0,0,0,3.35,3.38A1.48,1.48,0,0,1,127.45,81.74Z"/><path class="cls-1" d="M149,75a8.39,8.39,0,0,1-16.78,0V61.56a1.68,1.68,0,0,1,3.35,0V75a5,5,0,0,0,10.08,0V61.56a1.68,1.68,0,0,1,3.35,0Z"/><path class="cls-1" d="M175.84,76.68a2.09,2.09,0,0,1-.23.87,10.45,10.45,0,0,1-4.27,4.27,11.94,11.94,0,0,1-5.93,1.61,11.77,11.77,0,0,1-8.31-20.09,11.36,11.36,0,0,1,8.31-3.45,11.24,11.24,0,0,1,3.63.65,14.46,14.46,0,0,1,4.21,2.36q2.56,2,2.57,3.8a1.49,1.49,0,0,1-.83,1.37l-15.86,9.16a8,8,0,0,0,6.28,2.85,7.75,7.75,0,0,0,6.34-2.9c.2-.29.52-.72,1-1.3a1.8,1.8,0,0,1,1.37-.87,1.75,1.75,0,0,1,1.23.49A1.54,1.54,0,0,1,175.84,76.68ZM171.7,66.1A8.4,8.4,0,0,0,157,71.65a8.32,8.32,0,0,0,.44,2.68Z"/><path class="cls-1" d="M204.07,71.65a11.76,11.76,0,1,1-23.51,0V51.5a1.68,1.68,0,1,1,3.35,0V63.43a11.76,11.76,0,0,1,20.16,8.22Zm-3.35,0a8.47,8.47,0,1,0-2.48,5.95A8.1,8.1,0,0,0,200.72,71.65Z"/><path class="cls-1" d="M214.13,52.36a2.35,2.35,0,0,1-.75,1.76,2.56,2.56,0,0,1-3.58,0,2.36,2.36,0,0,1-.76-1.76,2.46,2.46,0,0,1,.76-1.8,2.54,2.54,0,0,1,4.33,1.8Zm-.88,9.2V81.74a1.68,1.68,0,1,1-3.35,0V61.56a1.68,1.68,0,0,1,3.35,0Z"/><path class="cls-1" d="M234.13,64.16a1.48,1.48,0,0,1-.55,1.16,1.74,1.74,0,0,1-1.21.49c-.45,0-1-.43-1.76-1.28A3.28,3.28,0,0,0,228,63.25a3.38,3.38,0,0,0-3.36,3.35V81.74a1.68,1.68,0,1,1-3.35,0V61.56A1.48,1.48,0,0,1,223,59.89a1.54,1.54,0,0,1,1.55,1,6.41,6.41,0,0,1,3.49-1,6.88,6.88,0,0,1,3.39.93,5.88,5.88,0,0,1,2.43,2.44A2.08,2.08,0,0,1,234.13,64.16Z"/><path class="cls-1" d="M261.25,81.74a1.67,1.67,0,0,1-3.28.44,12.63,12.63,0,0,1-.1-2.29,11.75,11.75,0,1,1-16.69-16.55,11.75,11.75,0,0,1,16.72.09V51.5a1.68,1.68,0,1,1,3.35,0ZM257.9,71.65a8.45,8.45,0,1,0-2.47,5.95A8.09,8.09,0,0,0,257.9,71.65Z"/><path class="cls-2" d="M291.68,71.65a11.76,11.76,0,1,1-23.51,0V51.5a1.68,1.68,0,1,1,3.35,0V63.43a11.76,11.76,0,0,1,20.16,8.22Zm-3.36,0a8.45,8.45,0,1,0-2.47,5.95A8.09,8.09,0,0,0,288.32,71.65Z"/><path class="cls-2" d="M301.74,52.36a2.32,2.32,0,0,1-.76,1.76,2.56,2.56,0,0,1-3.58,0,2.35,2.35,0,0,1-.75-1.76,2.53,2.53,0,0,1,4.33-1.8A2.43,2.43,0,0,1,301.74,52.36Zm-.88,9.2V81.74a1.68,1.68,0,1,1-3.36,0V61.56a1.68,1.68,0,0,1,3.36,0Z"/><path class="cls-2" d="M330.22,71.65a11.8,11.8,0,1,1-3.46-8.31A11.33,11.33,0,0,1,330.22,71.65Zm-3.35,0a8.45,8.45,0,1,0-2.47,5.95A8.13,8.13,0,0,0,326.87,71.65Z"/><path class="cls-2" d="M96.16,36.44a52.29,52.29,0,0,0-8.79-13.73C81,15.23,62.45,0,62.45,0s8.17,20.4,10.13,29.84A24.53,24.53,0,0,1,73,35.1C88.71,37.13,95.25,36.54,96.16,36.44Z"/><path class="cls-3" d="M69.49,34.62C37.13,30,0,13.75,0,13.75S19.56,34.63,43.9,45.16c19.26,8.33,25.59,7.1,25.59,7.1l.17-.1c0-.11,3.3-8.76,3.38-17.06Z"/><path class="cls-4" d="M96.16,36.44l0,.05S96.23,36.44,96.16,36.44Z"/><path class="cls-1" d="M96.18,36.49l0-.05c-.91.1-7.45.69-23.12-1.34C73,43.4,69.7,52.05,69.66,52.16h0L96.2,36.56A.23.23,0,0,0,96.18,36.49Z"/><path class="cls-2" d="M333.86,57a3.29,3.29,0,1,1-3.29-3.3A3.29,3.29,0,0,1,333.86,57Zm-.53,0a2.76,2.76,0,1,0-2.76,2.84A2.76,2.76,0,0,0,333.33,57Zm-3.46,2h-.53V55h1.5c.88,0,1.27.38,1.27,1.09a1.05,1.05,0,0,1-.9,1.09l1.09,1.74h-.61l-1.06-1.74h-.76Zm.62-2.19c.51,0,1.09,0,1.09-.65s-.44-.63-.85-.63h-.86v1.28Z"/></svg>